<svg xmlns="http://www.w3.org/2000/svg" viewBox="0 0 4.233 4.233" height="16" width="16"><g transform="translate(-58.36 -97.669)"><rect ry=".794" y="97.669" x="58.36" height="4.233" width="4.233" rx=".794" fill="#f44336"/><path d="M60.478 97.934a.256.256 0 00-.1.49v.308a1.06 1.06 0 00-.09.012 1.06 1.06 0 00-.219.065l-.145-.276a.254.254 0 00-.318-.385.255.255 0 00.14.48l.145.276a1.06 1.06 0 00-.235.212l-.262-.18a.255.255 0 00-.46-.194.256.256 0 00.346.36l.264.182a1.06 1.06 0 00-.106.293l-.326-.039a.255.255 0 00-.498.043.255.255 0 00.476.158l.327.04a1.06 1.06 0 00.017.196 1.06 1.06 0 00.026.107l-.317.12a.255.255 0 10.073.19l.319-.121a1.06 1.06 0 00.175.245l-.232.261a.255.255 0 00-.247.435.256.256 0 00.4-.302l.231-.261a1.06 1.06 0 00.266.137l-.085.344a.255.255 0 10.196.047l.085-.343a1.06 1.06 0 00.297 0l.085.346a.255.255 0 10.196-.05l-.084-.342a1.06 1.06 0 00.266-.135l.233.263a.255.255 0 10.15-.135l-.23-.26a1.06 1.06 0 00.178-.244l.32.121a.255.255 0 10.07-.19l-.314-.118a1.06 1.06 0 00.044-.304l.33-.04a.256.256 0 10-.026-.201l-.324.04a1.06 1.06 0 00-.103-.295l.264-.183a.256.256 0 10-.116-.165l-.26.18a1.06 1.06 0 00-.233-.215l.146-.277a.255.255 0 00.039-.51.255.255 0 00-.22.417l-.142.274a1.06 1.06 0 00-.31-.079v-.31a.255.255 0 00-.102-.488zm-.168 1.095a.237.237 0 01.015 0 .237.237 0 01.237.237.237.237 0 01-.237.238.237.237 0 01-.238-.238.237.237 0 01.223-.237zm.594.081a.127.127 0 01.126.127.127.127 0 01-.126.127.127.127 0 01-.127-.127.127.127 0 01.127-.127zm-1.113.338a.127.127 0 01.127.126.127.127 0 01-.127.127.127.127 0 01-.126-.127.127.127 0 01.126-.126zm1.224.105a.237.237 0 01.237.237.237.237 0 01-.237.238.237.237 0 01-.238-.238.237.237 0 01.238-.237zm-.807.29a.328.328 0 01.328.328.328.328 0 01-.328.327.328.328 0 01-.328-.327.328.328 0 01.328-.328zm.687.428a.127.127 0 01.127.127.127.127 0 01-.127.126.127.127 0 01-.126-.126.127.127 0 01.126-.127z" fill="#fff"/></g></svg>