<?xml version="1.0" encoding="UTF-8" standalone="no"?>
<svg
   xmlns:dc="http://purl.org/dc/elements/1.1/"
   xmlns:cc="http://creativecommons.org/ns#"
   xmlns:rdf="http://www.w3.org/1999/02/22-rdf-syntax-ns#"
   xmlns:svg="http://www.w3.org/2000/svg"
   xmlns="http://www.w3.org/2000/svg"
   xmlns:sodipodi="http://sodipodi.sourceforge.net/DTD/sodipodi-0.dtd"
   xmlns:inkscape="http://www.inkscape.org/namespaces/inkscape"
   sodipodi:docname="logo.svg"
   inkscape:version="1.0 (4035a4fb49, 2020-05-01)"
   id="svg1877"
   version="1.1"
   viewBox="0 0 4.9002995 4.9002995"
   height="4.9002995mm"
   width="4.9002995mm">
  <defs
     id="defs1871">
    <inkscape:path-effect
       effect="copy_rotate"
       starting_point="11.691132,0"
       origin="2.4,0"
       id="path-effect1121"
       is_visible="true"
       lpeversion="1"
       method="normal"
       num_copies="13"
       starting_angle="0"
       rotation_angle="27.692308"
       gap="-0.01"
       copies_to_360="true"
       mirror_copies="false"
       split_items="false" />
    <inkscape:path-effect
       effect="copy_rotate"
       starting_point="102.4,0"
       origin="2.4,0"
       id="path-effect1868"
       is_visible="true"
       lpeversion="1"
       method="normal"
       num_copies="13"
       starting_angle="0"
       rotation_angle="27.692308"
       gap="-0.01"
       copies_to_360="true"
       mirror_copies="false"
       split_items="false" />
  </defs>
  <sodipodi:namedview
     inkscape:window-maximized="1"
     inkscape:window-y="24"
     inkscape:window-x="0"
     inkscape:window-height="1031"
     inkscape:window-width="1918"
     fit-margin-bottom="0"
     fit-margin-right="0"
     fit-margin-left="0"
     fit-margin-top="0"
     showgrid="false"
     inkscape:document-rotation="0"
     inkscape:current-layer="layer1"
     inkscape:document-units="mm"
     inkscape:cy="7.6235882"
     inkscape:cx="3.7466291"
     inkscape:zoom="15.839192"
     inkscape:pageshadow="2"
     inkscape:pageopacity="0.0"
     borderopacity="1.0"
     bordercolor="#666666"
     pagecolor="#ffffff"
     id="base" />
  <metadata
     id="metadata1874">
    <rdf:RDF>
      <cc:Work
         rdf:about="">
        <dc:format>image/svg+xml</dc:format>
        <dc:type
           rdf:resource="http://purl.org/dc/dcmitype/StillImage" />
        <dc:title></dc:title>
      </cc:Work>
    </rdf:RDF>
  </metadata>
  <g
     transform="translate(-63.317707,-86.752232)"
     id="layer1"
     inkscape:groupmode="layer"
     inkscape:label="Vrstva 1">
    <rect
       y="86.752235"
       x="63.317707"
       height="4.9002995"
       width="4.9002995"
       id="rect2463"
       style="fill:#f44336;stroke:none;stroke-width:0.0420687;stroke-linecap:round;stroke-linejoin:round" />
    <path
       id="circle2465"
       style="fill:#ffffff;stroke:none;stroke-width:0.0420687;stroke-linecap:round;stroke-linejoin:round"
       d="m 65.769237,87.643134 c -0.118699,6.6e-5 -0.214908,0.09627 -0.214974,0.214974 6.5e-5,0.08634 0.05175,0.164269 0.131258,0.19792 v 0.258899 a 0.89161958,0.89161958 0 0 0 -0.077,0.01034 0.89161958,0.89161958 0 0 0 -0.183968,0.05478 l -0.12144,-0.232028 c 0.05352,-0.06664 0.06235,-0.158876 0.02274,-0.234611 -0.05531,-0.105251 -0.185242,-0.145367 -0.290421,-0.08992 -0.105073,0.05522 -0.145538,0.184772 -0.09043,0.289905 0.04018,0.07642 0.122215,0.121359 0.208256,0.114205 l 0.121439,0.232027 a 0.89161958,0.89161958 0 0 0 -0.197404,0.179318 l -0.220141,-0.152446 c 0.01642,-0.08388 -0.0181,-0.169423 -0.08837,-0.218074 -0.09789,-0.06749 -0.23236,-0.04269 -0.299723,0.05529 -0.06738,0.09772 -0.04288,0.231723 0.05478,0.299207 0.07109,0.04899 0.164851,0.05048 0.237711,0.0041 l 0.221176,0.152962 a 0.89161958,0.89161958 0 0 0 -0.08888,0.24753 l -0.273885,-0.03359 c -0.02444,-0.0819 -0.095,-0.141506 -0.179834,-0.151929 -0.118041,-0.01426 -0.225664,0.07004 -0.239779,0.188102 -0.01425,0.117842 0.06976,0.224888 0.187586,0.239262 0.08572,0.01034 0.1694,-0.03158 0.21239,-0.106453 l 0.275952,0.03359 a 0.89161958,0.89161958 0 0 0 0.01447,0.164848 0.89161958,0.89161958 0 0 0 0.02119,0.09147 l -0.266651,0.100769 c -0.0597,-0.06116 -0.150003,-0.08135 -0.22996,-0.05116 -0.111151,0.04222 -0.166908,0.166923 -0.12454,0.278019 0.04215,0.110962 0.166493,0.166571 0.277502,0.12454 0.08071,-0.03068 0.135223,-0.106477 0.138493,-0.192753 l 0.268201,-0.102319 a 0.89161958,0.89161958 0 0 0 0.147795,0.207739 l -0.19482,0.219625 c -0.08129,-0.02641 -0.170609,-0.0024 -0.227377,0.0615 -0.07879,0.08904 -0.07002,0.225175 0.01912,0.303857 0.08889,0.07866 0.224578,0.07072 0.30334,-0.01809 0.05721,-0.06467 0.07028,-0.157731 0.03307,-0.235644 l 0.19482,-0.220142 a 0.89161958,0.89161958 0 0 0 0.223759,0.115755 l -0.07183,0.289388 c -0.08425,0.01439 -0.152026,0.07724 -0.172599,0.160197 -0.02839,0.115462 0.04263,0.232207 0.15813,0.260449 0.115265,0.02834 0.231461,-0.04186 0.259932,-0.157096 0.0206,-0.08384 -0.01095,-0.172058 -0.0801,-0.223759 l 0.07131,-0.288871 a 0.89161958,0.89161958 0 0 0 0.250114,5.29e-4 l 0.07183,0.290938 c -0.06791,0.0519 -0.09836,0.138679 -0.07803,0.221692 0.02851,0.11543 0.145056,0.185765 0.260449,0.157096 0.115235,-0.02847 0.185439,-0.144666 0.157097,-0.259932 -0.02073,-0.08381 -0.08942,-0.147068 -0.174667,-0.160714 L 66.055008,90.0461 A 0.89161958,0.89161958 0 0 0 66.2798,89.932412 l 0.195854,0.221175 c -0.03602,0.07751 -0.02248,0.169006 0.03411,0.233061 0.0789,0.08895 0.215005,0.09709 0.303858,0.01809 0.0888,-0.07876 0.09675,-0.214449 0.01809,-0.30334 -0.0573,-0.06458 -0.147615,-0.08852 -0.229444,-0.06098 l -0.193269,-0.218591 a 0.89161958,0.89161958 0 0 0 0.148828,-0.206189 l 0.269751,0.102319 c 0.0041,0.08537 0.05862,0.160265 0.138492,0.190687 0.111198,0.0421 0.235545,-0.0138 0.277503,-0.125057 0.04203,-0.11101 -0.01409,-0.23535 -0.125057,-0.277503 -0.08075,-0.03055 -0.171852,-0.0097 -0.231511,0.05271 l -0.2651,-0.100769 a 0.89161958,0.89161958 0 0 0 0.03772,-0.255798 l 0.276986,-0.03359 c 0.04333,0.07367 0.126498,0.114567 0.211356,0.104387 0.118027,-0.0144 0.201619,-0.121772 0.187069,-0.239779 -0.01437,-0.117826 -0.121419,-0.201827 -0.239262,-0.187586 -0.0857,0.01047 -0.156529,0.07153 -0.180351,0.154513 l -0.272334,0.03307 a 0.89161958,0.89161958 0 0 0 -0.08785,-0.248047 l 0.222725,-0.153996 c 0.07261,0.04509 0.165237,0.04332 0.235645,-0.0052 0.09782,-0.0676 0.121987,-0.201995 0.05426,-0.299724 -0.06749,-0.09765 -0.201481,-0.122153 -0.299206,-0.05478 -0.07102,0.0491 -0.105839,0.136107 -0.08837,0.220659 l -0.218592,0.150883 a 0.89161958,0.89161958 0 0 0 -0.19637,-0.180351 l 0.122473,-0.233061 c 0.08524,0.0062 0.165845,-0.03858 0.205672,-0.114205 0.05519,-0.105313 0.01443,-0.235877 -0.09095,-0.290938 -0.105134,-0.0551 -0.234683,-0.01464 -0.289904,0.09043 -0.04007,0.07648 -0.03048,0.169931 0.02429,0.236678 L 66.11599,88.38155 A 0.89161958,0.89161958 0 0 0 65.85554,88.3154 v -0.260449 c 0.07836,-0.03413 0.129068,-0.111421 0.129191,-0.196887 -6.7e-5,-0.118902 -0.09659,-0.215193 -0.215491,-0.214974 z m -0.129191,0.921907 a 0.19990206,0.19990206 0 0 1 0.199988,0.199988 0.19990206,0.19990206 0 0 1 -0.199988,0.199988 0.19990206,0.19990206 0 0 1 -0.199988,-0.199988 0.19990206,0.19990206 0 0 1 0.199988,-0.199988 z m 0.487825,0.06873 a 0.10659191,0.10659191 0 0 1 0.106454,0.106453 0.10659191,0.10659191 0 0 1 -0.106454,0.106454 0.10659191,0.10659191 0 0 1 -0.10697,-0.106454 0.10659191,0.10659191 0 0 1 0.10697,-0.106453 z m -0.936377,0.283703 a 0.10659191,0.10659191 0 0 1 0.106454,0.106971 0.10659191,0.10659191 0 0 1 -0.106454,0.106453 0.10659191,0.10659191 0 0 1 -0.106453,-0.106453 0.10659191,0.10659191 0 0 1 0.106453,-0.106971 z m 1.025261,0.08888 a 0.19990206,0.19990206 0 0 1 0.0047,0 0.19990206,0.19990206 0 0 1 0.199988,0.199988 0.19990206,0.19990206 0 0 1 -0.199988,0.199988 0.19990206,0.19990206 0 0 1 -0.199988,-0.199988 0.19990206,0.19990206 0 0 1 0.195337,-0.199988 z m -0.676445,0.243913 a 0.27597306,0.27597306 0 0 1 0.0016,0 0.27597306,0.27597306 0 0 1 0.275952,0.275952 0.27597306,0.27597306 0 0 1 -0.275952,0.275952 0.27597306,0.27597306 0 0 1 -0.275953,-0.275952 0.27597306,0.27597306 0 0 1 0.274402,-0.275952 z m 0.580327,0.360701 a 0.10659191,0.10659191 0 0 1 0.10697,0.106454 0.10659191,0.10659191 0 0 1 -0.10697,0.106453 0.10659191,0.10659191 0 0 1 -0.106454,-0.106453 0.10659191,0.10659191 0 0 1 0.106454,-0.106454 z" />
  </g>
</svg>
